# MagicaVoxel @ Ephtracy

# group
o gear

# material
mtllib lever-0-gear.mtl
usemtl palette

# normals
vn -1 0 0
vn 1 0 0
vn 0 0 1
vn 0 0 -1
vn 0 -1 0
vn 0 1 0

# texcoords
vt 0.978516 0.5
vt 0.990234 0.5

# verts
v 7.45058e-009 0 0
v 7.45058e-009 0 -0.1
v 7.45058e-009 0.1 0
v 7.45058e-009 0.1 -0.1
v 0.1 0 0.1
v 0.1 0 0
v 0.1 0.1 0.1
v 0.1 0.1 0
v 0.2 0 0.2
v 0.2 0 0.1
v 0.2 0.1 0.2
v 0.2 0.1 0.1
v 0.3 0 0.5
v 0.3 0 0.2
v 0.3 0.1 0.5
v 0.3 0.1 0.2
v 0.1 0 0
v 0.1 0 -0.1
v 0.1 0.1 0
v 0.1 0.1 -0.1
v 0.2 0 0.1
v 0.2 0 0
v 0.2 0.1 0.1
v 0.2 0.1 0
v 0.3 0 0.2
v 0.3 0 0.1
v 0.3 0.1 0.2
v 0.3 0.1 0.1
v 0.4 0 0.5
v 0.4 0 0.2
v 0.4 0.1 0.5
v 0.4 0.1 0.2
v 0.3 0 0.5
v 0.3 0.1 0.5
v 0.4 0 0.5
v 0.4 0.1 0.5
v 0.2 0 0.2
v 0.2 0.1 0.2
v 0.3 0 0.2
v 0.3 0.1 0.2
v 0.1 0 0.1
v 0.1 0.1 0.1
v 0.2 0 0.1
v 0.2 0.1 0.1
v 7.45058e-009 0 0
v 7.45058e-009 0.1 0
v 0.1 0 0
v 0.1 0.1 0
v 0.3 0 0.2
v 0.3 0.1 0.2
v 0.4 0 0.2
v 0.4 0.1 0.2
v 0.2 0 0.1
v 0.2 0.1 0.1
v 0.3 0 0.1
v 0.3 0.1 0.1
v 0.1 0 0
v 0.1 0.1 0
v 0.2 0 0
v 0.2 0.1 0
v 7.45058e-009 0 -0.1
v 7.45058e-009 0.1 -0.1
v 0.1 0 -0.1
v 0.1 0.1 -0.1
v 0.3 0 0.5
v 0.4 0 0.5
v 0.2 0 0.2
v 0.3 0 0.2
v 0.4 0 0.2
v 0.1 0 0.1
v 0.2 0 0.1
v 0.3 0 0.1
v 7.45058e-009 0 0
v 0.1 0 0
v 0.2 0 0
v 7.45058e-009 0 -0.1
v 0.1 0 -0.1
v 0.3 0.1 0.5
v 0.4 0.1 0.5
v 0.2 0.1 0.2
v 0.3 0.1 0.2
v 0.4 0.1 0.2
v 0.1 0.1 0.1
v 0.2 0.1 0.1
v 0.3 0.1 0.1
v 7.45058e-009 0.1 0
v 0.1 0.1 0
v 0.2 0.1 0
v 7.45058e-009 0.1 -0.1
v 0.1 0.1 -0.1

# faces
f 3/1/1 2/1/1 1/1/1
f 4/1/1 2/1/1 3/1/1
f 7/1/1 6/1/1 5/1/1
f 8/1/1 6/1/1 7/1/1
f 11/1/1 10/1/1 9/1/1
f 12/1/1 10/1/1 11/1/1
f 15/2/1 14/2/1 13/2/1
f 16/2/1 14/2/1 15/2/1
f 17/1/2 18/1/2 19/1/2
f 19/1/2 18/1/2 20/1/2
f 21/1/2 22/1/2 23/1/2
f 23/1/2 22/1/2 24/1/2
f 25/1/2 26/1/2 27/1/2
f 27/1/2 26/1/2 28/1/2
f 29/2/2 30/2/2 31/2/2
f 31/2/2 30/2/2 32/2/2
f 35/2/3 34/2/3 33/2/3
f 36/2/3 34/2/3 35/2/3
f 39/1/3 38/1/3 37/1/3
f 40/1/3 38/1/3 39/1/3
f 43/1/3 42/1/3 41/1/3
f 44/1/3 42/1/3 43/1/3
f 47/1/3 46/1/3 45/1/3
f 48/1/3 46/1/3 47/1/3
f 49/2/4 50/2/4 51/2/4
f 51/2/4 50/2/4 52/2/4
f 53/1/4 54/1/4 55/1/4
f 55/1/4 54/1/4 56/1/4
f 57/1/4 58/1/4 59/1/4
f 59/1/4 58/1/4 60/1/4
f 61/1/4 62/1/4 63/1/4
f 63/1/4 62/1/4 64/1/4
f 68/2/5 66/2/5 65/2/5
f 69/2/5 66/2/5 68/2/5
f 71/1/5 68/1/5 67/1/5
f 72/1/5 68/1/5 71/1/5
f 74/1/5 71/1/5 70/1/5
f 75/1/5 71/1/5 74/1/5
f 76/1/5 74/1/5 73/1/5
f 77/1/5 74/1/5 76/1/5
f 78/2/6 79/2/6 81/2/6
f 81/2/6 79/2/6 82/2/6
f 80/1/6 81/1/6 84/1/6
f 84/1/6 81/1/6 85/1/6
f 83/1/6 84/1/6 87/1/6
f 87/1/6 84/1/6 88/1/6
f 86/1/6 87/1/6 89/1/6
f 89/1/6 87/1/6 90/1/6
