# MagicaVoxel @ Ephtracy

# group
o 

# material
mtllib gear.mtl
usemtl palette

# normals
vn -1 0 0
vn 1 0 0
vn 0 0 1
vn 0 0 -1
vn 0 -1 0
vn 0 1 0

# texcoords
vt 0.970703 0.5
vt 0.974609 0.5
vt 0.978516 0.5

# verts
v -0.1 0.1 0.2
v -0.1 0.1 -0.2
v -0.1 0.2 0.3
v -0.1 0.2 0.2
v -0.1 0.2 -0.2
v -0.1 0.2 -0.3
v -0.1 0.3 0.4
v -0.1 0.3 0.3
v -0.1 0.3 0.2
v -0.1 0.3 0.1
v -0.1 0.3 -0.1
v -0.1 0.3 -0.2
v -0.1 0.3 -0.3
v -0.1 0.3 -0.4
v -0.1 0.4 0.2
v -0.1 0.4 0.1
v -0.1 0.4 -0.1
v -0.1 0.4 -0.2
v -0.1 0.6 0.2
v -0.1 0.6 0.1
v -0.1 0.6 -0.1
v -0.1 0.6 -0.2
v -0.1 0.7 0.4
v -0.1 0.7 0.3
v -0.1 0.7 0.2
v -0.1 0.7 0.1
v -0.1 0.7 -0.1
v -0.1 0.7 -0.2
v -0.1 0.7 -0.3
v -0.1 0.7 -0.4
v -0.1 0.8 0.3
v -0.1 0.8 0.2
v -0.1 0.8 -0.2
v -0.1 0.8 -0.3
v -0.1 0.9 0.2
v -0.1 0.9 -0.2
v 1.49012e-008 0.1 0.2
v 1.49012e-008 0.1 -0.2
v 1.49012e-008 0.2 0.3
v 1.49012e-008 0.2 0.2
v 1.49012e-008 0.2 -0.2
v 1.49012e-008 0.2 -0.3
v 1.49012e-008 0.3 0.4
v 1.49012e-008 0.3 0.3
v 1.49012e-008 0.3 0.2
v 1.49012e-008 0.3 0.1
v 1.49012e-008 0.3 -0.1
v 1.49012e-008 0.3 -0.2
v 1.49012e-008 0.3 -0.3
v 1.49012e-008 0.3 -0.4
v 1.49012e-008 0.4 0.2
v 1.49012e-008 0.4 0.1
v 1.49012e-008 0.4 -0.1
v 1.49012e-008 0.4 -0.2
v 1.49012e-008 0.6 0.2
v 1.49012e-008 0.6 0.1
v 1.49012e-008 0.6 -0.1
v 1.49012e-008 0.6 -0.2
v 1.49012e-008 0.7 0.4
v 1.49012e-008 0.7 0.3
v 1.49012e-008 0.7 0.2
v 1.49012e-008 0.7 0.1
v 1.49012e-008 0.7 -0.1
v 1.49012e-008 0.7 -0.2
v 1.49012e-008 0.7 -0.3
v 1.49012e-008 0.7 -0.4
v 1.49012e-008 0.8 0.3
v 1.49012e-008 0.8 0.2
v 1.49012e-008 0.8 -0.2
v 1.49012e-008 0.8 -0.3
v 1.49012e-008 0.9 0.2
v 1.49012e-008 0.9 -0.2
v -0.1 0.3 0.4
v -0.1 0.7 0.4
v 1.49012e-008 0.3 0.4
v 1.49012e-008 0.7 0.4
v -0.1 0.2 0.3
v -0.1 0.3 0.3
v -0.1 0.7 0.3
v -0.1 0.8 0.3
v 1.49012e-008 0.2 0.3
v 1.49012e-008 0.3 0.3
v 1.49012e-008 0.7 0.3
v 1.49012e-008 0.8 0.3
v -0.1 0.1 0.2
v -0.1 0.2 0.2
v -0.1 0.3 0.2
v -0.1 0.4 0.2
v -0.1 0.6 0.2
v -0.1 0.7 0.2
v -0.1 0.8 0.2
v -0.1 0.9 0.2
v 1.49012e-008 0.1 0.2
v 1.49012e-008 0.2 0.2
v 1.49012e-008 0.3 0.2
v 1.49012e-008 0.4 0.2
v 1.49012e-008 0.6 0.2
v 1.49012e-008 0.7 0.2
v 1.49012e-008 0.8 0.2
v 1.49012e-008 0.9 0.2
v -0.1 0.4 0.1
v -0.1 0.6 0.1
v 1.49012e-008 0.4 0.1
v 1.49012e-008 0.6 0.1
v -0.1 0.3 -0.1
v -0.1 0.4 -0.1
v -0.1 0.6 -0.1
v -0.1 0.7 -0.1
v 1.49012e-008 0.3 -0.1
v 1.49012e-008 0.4 -0.1
v 1.49012e-008 0.6 -0.1
v 1.49012e-008 0.7 -0.1
v -0.1 0.2 -0.2
v -0.1 0.3 -0.2
v -0.1 0.7 -0.2
v -0.1 0.8 -0.2
v 1.49012e-008 0.2 -0.2
v 1.49012e-008 0.3 -0.2
v 1.49012e-008 0.7 -0.2
v 1.49012e-008 0.8 -0.2
v -0.1 0.3 -0.3
v -0.1 0.7 -0.3
v 1.49012e-008 0.3 -0.3
v 1.49012e-008 0.7 -0.3
v -0.1 0.3 0.3
v -0.1 0.7 0.3
v 1.49012e-008 0.3 0.3
v 1.49012e-008 0.7 0.3
v -0.1 0.2 0.2
v -0.1 0.3 0.2
v -0.1 0.7 0.2
v -0.1 0.8 0.2
v 1.49012e-008 0.2 0.2
v 1.49012e-008 0.3 0.2
v 1.49012e-008 0.7 0.2
v 1.49012e-008 0.8 0.2
v -0.1 0.3 0.1
v -0.1 0.4 0.1
v -0.1 0.6 0.1
v -0.1 0.7 0.1
v 1.49012e-008 0.3 0.1
v 1.49012e-008 0.4 0.1
v 1.49012e-008 0.6 0.1
v 1.49012e-008 0.7 0.1
v -0.1 0.4 -0.1
v -0.1 0.6 -0.1
v 1.49012e-008 0.4 -0.1
v 1.49012e-008 0.6 -0.1
v -0.1 0.1 -0.2
v -0.1 0.2 -0.2
v -0.1 0.3 -0.2
v -0.1 0.4 -0.2
v -0.1 0.6 -0.2
v -0.1 0.7 -0.2
v -0.1 0.8 -0.2
v -0.1 0.9 -0.2
v 1.49012e-008 0.1 -0.2
v 1.49012e-008 0.2 -0.2
v 1.49012e-008 0.3 -0.2
v 1.49012e-008 0.4 -0.2
v 1.49012e-008 0.6 -0.2
v 1.49012e-008 0.7 -0.2
v 1.49012e-008 0.8 -0.2
v 1.49012e-008 0.9 -0.2
v -0.1 0.2 -0.3
v -0.1 0.3 -0.3
v -0.1 0.7 -0.3
v -0.1 0.8 -0.3
v 1.49012e-008 0.2 -0.3
v 1.49012e-008 0.3 -0.3
v 1.49012e-008 0.7 -0.3
v 1.49012e-008 0.8 -0.3
v -0.1 0.3 -0.4
v -0.1 0.7 -0.4
v 1.49012e-008 0.3 -0.4
v 1.49012e-008 0.7 -0.4
v -0.1 0.1 0.2
v 1.49012e-008 0.1 0.2
v -0.1 0.1 -0.2
v 1.49012e-008 0.1 -0.2
v -0.1 0.2 0.3
v 1.49012e-008 0.2 0.3
v -0.1 0.2 0.2
v 1.49012e-008 0.2 0.2
v -0.1 0.2 -0.2
v 1.49012e-008 0.2 -0.2
v -0.1 0.2 -0.3
v 1.49012e-008 0.2 -0.3
v -0.1 0.3 0.4
v 1.49012e-008 0.3 0.4
v -0.1 0.3 0.3
v 1.49012e-008 0.3 0.3
v -0.1 0.3 0.2
v 1.49012e-008 0.3 0.2
v -0.1 0.3 0.1
v 1.49012e-008 0.3 0.1
v -0.1 0.3 -0.1
v 1.49012e-008 0.3 -0.1
v -0.1 0.3 -0.2
v 1.49012e-008 0.3 -0.2
v -0.1 0.3 -0.3
v 1.49012e-008 0.3 -0.3
v -0.1 0.3 -0.4
v 1.49012e-008 0.3 -0.4
v -0.1 0.4 0.1
v 1.49012e-008 0.4 0.1
v -0.1 0.4 -0.1
v 1.49012e-008 0.4 -0.1
v -0.1 0.6 0.2
v 1.49012e-008 0.6 0.2
v -0.1 0.6 0.1
v 1.49012e-008 0.6 0.1
v -0.1 0.6 -0.1
v 1.49012e-008 0.6 -0.1
v -0.1 0.6 -0.2
v 1.49012e-008 0.6 -0.2
v -0.1 0.7 0.3
v 1.49012e-008 0.7 0.3
v -0.1 0.7 0.2
v 1.49012e-008 0.7 0.2
v -0.1 0.7 -0.2
v 1.49012e-008 0.7 -0.2
v -0.1 0.7 -0.3
v 1.49012e-008 0.7 -0.3
v -0.1 0.8 0.2
v 1.49012e-008 0.8 0.2
v -0.1 0.8 -0.2
v 1.49012e-008 0.8 -0.2
v -0.1 0.2 0.2
v 1.49012e-008 0.2 0.2
v -0.1 0.2 -0.2
v 1.49012e-008 0.2 -0.2
v -0.1 0.3 0.3
v 1.49012e-008 0.3 0.3
v -0.1 0.3 0.2
v 1.49012e-008 0.3 0.2
v -0.1 0.3 -0.2
v 1.49012e-008 0.3 -0.2
v -0.1 0.3 -0.3
v 1.49012e-008 0.3 -0.3
v -0.1 0.4 0.2
v 1.49012e-008 0.4 0.2
v -0.1 0.4 0.1
v 1.49012e-008 0.4 0.1
v -0.1 0.4 -0.1
v 1.49012e-008 0.4 -0.1
v -0.1 0.4 -0.2
v 1.49012e-008 0.4 -0.2
v -0.1 0.6 0.1
v 1.49012e-008 0.6 0.1
v -0.1 0.6 -0.1
v 1.49012e-008 0.6 -0.1
v -0.1 0.7 0.4
v 1.49012e-008 0.7 0.4
v -0.1 0.7 0.3
v 1.49012e-008 0.7 0.3
v -0.1 0.7 0.2
v 1.49012e-008 0.7 0.2
v -0.1 0.7 0.1
v 1.49012e-008 0.7 0.1
v -0.1 0.7 -0.1
v 1.49012e-008 0.7 -0.1
v -0.1 0.7 -0.2
v 1.49012e-008 0.7 -0.2
v -0.1 0.7 -0.3
v 1.49012e-008 0.7 -0.3
v -0.1 0.7 -0.4
v 1.49012e-008 0.7 -0.4
v -0.1 0.8 0.3
v 1.49012e-008 0.8 0.3
v -0.1 0.8 0.2
v 1.49012e-008 0.8 0.2
v -0.1 0.8 -0.2
v 1.49012e-008 0.8 -0.2
v -0.1 0.8 -0.3
v 1.49012e-008 0.8 -0.3
v -0.1 0.9 0.2
v 1.49012e-008 0.9 0.2
v -0.1 0.9 -0.2
v 1.49012e-008 0.9 -0.2

# faces
f 4/2/1 2/2/1 1/2/1
f 5/2/1 2/2/1 4/2/1
f 8/2/1 4/2/1 3/2/1
f 9/2/1 4/2/1 8/2/1
f 12/2/1 6/2/1 5/2/1
f 13/2/1 6/2/1 12/2/1
f 15/1/1 10/1/1 9/1/1
f 16/1/1 10/1/1 15/1/1
f 17/1/1 12/1/1 11/1/1
f 18/1/1 12/1/1 17/1/1
f 20/3/1 17/3/1 16/3/1
f 21/3/1 17/3/1 20/3/1
f 23/2/1 8/2/1 7/2/1
f 24/2/1 8/2/1 23/2/1
f 25/1/1 20/1/1 19/1/1
f 26/1/1 20/1/1 25/1/1
f 27/1/1 22/1/1 21/1/1
f 28/1/1 22/1/1 27/1/1
f 29/2/1 14/2/1 13/2/1
f 30/2/1 14/2/1 29/2/1
f 31/2/1 25/2/1 24/2/1
f 32/2/1 25/2/1 31/2/1
f 33/2/1 29/2/1 28/2/1
f 34/2/1 29/2/1 33/2/1
f 35/2/1 33/2/1 32/2/1
f 36/2/1 33/2/1 35/2/1
f 37/2/2 38/2/2 40/2/2
f 40/2/2 38/2/2 41/2/2
f 39/2/2 40/2/2 44/2/2
f 44/2/2 40/2/2 45/2/2
f 41/2/2 42/2/2 48/2/2
f 48/2/2 42/2/2 49/2/2
f 45/1/2 46/1/2 51/1/2
f 51/1/2 46/1/2 52/1/2
f 47/1/2 48/1/2 53/1/2
f 53/1/2 48/1/2 54/1/2
f 52/3/2 53/3/2 56/3/2
f 56/3/2 53/3/2 57/3/2
f 43/2/2 44/2/2 59/2/2
f 59/2/2 44/2/2 60/2/2
f 55/1/2 56/1/2 61/1/2
f 61/1/2 56/1/2 62/1/2
f 57/1/2 58/1/2 63/1/2
f 63/1/2 58/1/2 64/1/2
f 49/2/2 50/2/2 65/2/2
f 65/2/2 50/2/2 66/2/2
f 60/2/2 61/2/2 67/2/2
f 67/2/2 61/2/2 68/2/2
f 64/2/2 65/2/2 69/2/2
f 69/2/2 65/2/2 70/2/2
f 68/2/2 69/2/2 71/2/2
f 71/2/2 69/2/2 72/2/2
f 75/2/3 74/2/3 73/2/3
f 76/2/3 74/2/3 75/2/3
f 81/2/3 78/2/3 77/2/3
f 82/2/3 78/2/3 81/2/3
f 83/2/3 80/2/3 79/2/3
f 84/2/3 80/2/3 83/2/3
f 93/2/3 86/2/3 85/2/3
f 94/2/3 86/2/3 93/2/3
f 95/1/3 88/1/3 87/1/3
f 96/1/3 88/1/3 95/1/3
f 97/1/3 90/1/3 89/1/3
f 98/1/3 90/1/3 97/1/3
f 99/2/3 92/2/3 91/2/3
f 100/2/3 92/2/3 99/2/3
f 103/3/3 102/3/3 101/3/3
f 104/3/3 102/3/3 103/3/3
f 109/1/3 106/1/3 105/1/3
f 110/1/3 106/1/3 109/1/3
f 111/1/3 108/1/3 107/1/3
f 112/1/3 108/1/3 111/1/3
f 117/2/3 114/2/3 113/2/3
f 118/2/3 114/2/3 117/2/3
f 119/2/3 116/2/3 115/2/3
f 120/2/3 116/2/3 119/2/3
f 123/2/3 122/2/3 121/2/3
f 124/2/3 122/2/3 123/2/3
f 125/2/4 126/2/4 127/2/4
f 127/2/4 126/2/4 128/2/4
f 129/2/4 130/2/4 133/2/4
f 133/2/4 130/2/4 134/2/4
f 131/2/4 132/2/4 135/2/4
f 135/2/4 132/2/4 136/2/4
f 137/1/4 138/1/4 141/1/4
f 141/1/4 138/1/4 142/1/4
f 139/1/4 140/1/4 143/1/4
f 143/1/4 140/1/4 144/1/4
f 145/3/4 146/3/4 147/3/4
f 147/3/4 146/3/4 148/3/4
f 149/2/4 150/2/4 157/2/4
f 157/2/4 150/2/4 158/2/4
f 151/1/4 152/1/4 159/1/4
f 159/1/4 152/1/4 160/1/4
f 153/1/4 154/1/4 161/1/4
f 161/1/4 154/1/4 162/1/4
f 155/2/4 156/2/4 163/2/4
f 163/2/4 156/2/4 164/2/4
f 165/2/4 166/2/4 169/2/4
f 169/2/4 166/2/4 170/2/4
f 167/2/4 168/2/4 171/2/4
f 171/2/4 168/2/4 172/2/4
f 173/2/4 174/2/4 175/2/4
f 175/2/4 174/2/4 176/2/4
f 179/2/5 178/2/5 177/2/5
f 180/2/5 178/2/5 179/2/5
f 183/2/5 182/2/5 181/2/5
f 184/2/5 182/2/5 183/2/5
f 187/2/5 186/2/5 185/2/5
f 188/2/5 186/2/5 187/2/5
f 191/2/5 190/2/5 189/2/5
f 192/2/5 190/2/5 191/2/5
f 195/1/5 194/1/5 193/1/5
f 196/1/5 194/1/5 195/1/5
f 199/1/5 198/1/5 197/1/5
f 200/1/5 198/1/5 199/1/5
f 203/2/5 202/2/5 201/2/5
f 204/2/5 202/2/5 203/2/5
f 207/3/5 206/3/5 205/3/5
f 208/3/5 206/3/5 207/3/5
f 211/1/5 210/1/5 209/1/5
f 212/1/5 210/1/5 211/1/5
f 215/1/5 214/1/5 213/1/5
f 216/1/5 214/1/5 215/1/5
f 219/2/5 218/2/5 217/2/5
f 220/2/5 218/2/5 219/2/5
f 223/2/5 222/2/5 221/2/5
f 224/2/5 222/2/5 223/2/5
f 227/2/5 226/2/5 225/2/5
f 228/2/5 226/2/5 227/2/5
f 229/2/6 230/2/6 231/2/6
f 231/2/6 230/2/6 232/2/6
f 233/2/6 234/2/6 235/2/6
f 235/2/6 234/2/6 236/2/6
f 237/2/6 238/2/6 239/2/6
f 239/2/6 238/2/6 240/2/6
f 241/1/6 242/1/6 243/1/6
f 243/1/6 242/1/6 244/1/6
f 245/1/6 246/1/6 247/1/6
f 247/1/6 246/1/6 248/1/6
f 249/3/6 250/3/6 251/3/6
f 251/3/6 250/3/6 252/3/6
f 253/2/6 254/2/6 255/2/6
f 255/2/6 254/2/6 256/2/6
f 257/1/6 258/1/6 259/1/6
f 259/1/6 258/1/6 260/1/6
f 261/1/6 262/1/6 263/1/6
f 263/1/6 262/1/6 264/1/6
f 265/2/6 266/2/6 267/2/6
f 267/2/6 266/2/6 268/2/6
f 269/2/6 270/2/6 271/2/6
f 271/2/6 270/2/6 272/2/6
f 273/2/6 274/2/6 275/2/6
f 275/2/6 274/2/6 276/2/6
f 277/2/6 278/2/6 279/2/6
f 279/2/6 278/2/6 280/2/6
