# MagicaVoxel @ Ephtracy

# group
o gear

# material
mtllib untitled-0-gear.mtl
usemtl palette

# normals
vn -1 0 0
vn 1 0 0
vn 0 0 1
vn 0 0 -1
vn 0 -1 0
vn 0 1 0

# texcoords
vt 0.970703 0.5
vt 0.978516 0.5

# verts
v -0.4 0 0.2
v -0.4 0 -0.3
v -0.4 0.1 0.2
v -0.4 0.1 -0.3
v -0.3 0 0.3
v -0.3 0 0.2
v -0.3 0 -0.3
v -0.3 0 -0.4
v -0.3 0.1 0.3
v -0.3 0.1 0.2
v -0.3 0.1 -0.3
v -0.3 0.1 -0.4
v -0.2 0 0.4
v -0.2 0 0.3
v -0.2 0 0.2
v -0.2 0 0.1
v -0.2 0 -0.2
v -0.2 0 -0.3
v -0.2 0 -0.4
v -0.2 0 -0.5
v -0.2 0.1 0.4
v -0.2 0.1 0.3
v -0.2 0.1 0.2
v -0.2 0.1 0.1
v -0.2 0.1 -0.2
v -0.2 0.1 -0.3
v -0.2 0.1 -0.4
v -0.2 0.1 -0.5
v -0.1 0 0.1
v -0.1 0 0
v -0.1 0 -0.1
v -0.1 0 -0.2
v -0.1 0.1 0.1
v -0.1 0.1 0
v -0.1 0.1 -0.1
v -0.1 0.1 -0.2
v 0 0 0
v 0 0 -0.1
v 0 0.1 0
v 0 0.1 -0.1
v 0.1 0 0.1
v 0.1 0 0
v 0.1 0 -0.1
v 0.1 0 -0.2
v 0.1 0.1 0.1
v 0.1 0.1 0
v 0.1 0.1 -0.1
v 0.1 0.1 -0.2
v 0.2 0 0.2
v 0.2 0 0.1
v 0.2 0 -0.2
v 0.2 0 -0.3
v 0.2 0.1 0.2
v 0.2 0.1 0.1
v 0.2 0.1 -0.2
v 0.2 0.1 -0.3
v 0.3 0 0.3
v 0.3 0 0.2
v 0.3 0 -0.3
v 0.3 0 -0.4
v 0.3 0.1 0.3
v 0.3 0.1 0.2
v 0.3 0.1 -0.3
v 0.3 0.1 -0.4
v 0.4 0 0.2
v 0.4 0 -0.3
v 0.4 0.1 0.2
v 0.4 0.1 -0.3
v -0.3 0 0.2
v -0.3 0 -0.3
v -0.3 0.1 0.2
v -0.3 0.1 -0.3
v -0.2 0 0.3
v -0.2 0 0.2
v -0.2 0 -0.3
v -0.2 0 -0.4
v -0.2 0.1 0.3
v -0.2 0.1 0.2
v -0.2 0.1 -0.3
v -0.2 0.1 -0.4
v -0.1 0 0.2
v -0.1 0 0.1
v -0.1 0 -0.2
v -0.1 0 -0.3
v -0.1 0.1 0.2
v -0.1 0.1 0.1
v -0.1 0.1 -0.2
v -0.1 0.1 -0.3
v 0 0 0.1
v 0 0 0
v 0 0 -0.1
v 0 0 -0.2
v 0 0.1 0.1
v 0 0.1 0
v 0 0.1 -0.1
v 0 0.1 -0.2
v 0.1 0 0
v 0.1 0 -0.1
v 0.1 0.1 0
v 0.1 0.1 -0.1
v 0.2 0 0.1
v 0.2 0 0
v 0.2 0 -0.1
v 0.2 0 -0.2
v 0.2 0.1 0.1
v 0.2 0.1 0
v 0.2 0.1 -0.1
v 0.2 0.1 -0.2
v 0.3 0 0.4
v 0.3 0 0.3
v 0.3 0 0.2
v 0.3 0 0.1
v 0.3 0 -0.2
v 0.3 0 -0.3
v 0.3 0 -0.4
v 0.3 0 -0.5
v 0.3 0.1 0.4
v 0.3 0.1 0.3
v 0.3 0.1 0.2
v 0.3 0.1 0.1
v 0.3 0.1 -0.2
v 0.3 0.1 -0.3
v 0.3 0.1 -0.4
v 0.3 0.1 -0.5
v 0.4 0 0.3
v 0.4 0 0.2
v 0.4 0 -0.3
v 0.4 0 -0.4
v 0.4 0.1 0.3
v 0.4 0.1 0.2
v 0.4 0.1 -0.3
v 0.4 0.1 -0.4
v 0.5 0 0.2
v 0.5 0 -0.3
v 0.5 0.1 0.2
v 0.5 0.1 -0.3
v -0.2 0 0.4
v -0.2 0.1 0.4
v 0.3 0 0.4
v 0.3 0.1 0.4
v -0.3 0 0.3
v -0.3 0.1 0.3
v -0.2 0 0.3
v -0.2 0.1 0.3
v 0.3 0 0.3
v 0.3 0.1 0.3
v 0.4 0 0.3
v 0.4 0.1 0.3
v -0.4 0 0.2
v -0.4 0.1 0.2
v -0.3 0 0.2
v -0.3 0.1 0.2
v -0.2 0 0.2
v -0.2 0.1 0.2
v -0.1 0 0.2
v -0.1 0.1 0.2
v 0.2 0 0.2
v 0.2 0.1 0.2
v 0.3 0 0.2
v 0.3 0.1 0.2
v 0.4 0 0.2
v 0.4 0.1 0.2
v 0.5 0 0.2
v 0.5 0.1 0.2
v -0.1 0 0.1
v -0.1 0.1 0.1
v 0 0 0.1
v 0 0.1 0.1
v 0.1 0 0.1
v 0.1 0.1 0.1
v 0.2 0 0.1
v 0.2 0.1 0.1
v 0 0 0
v 0 0.1 0
v 0.1 0 0
v 0.1 0.1 0
v -0.1 0 -0.1
v -0.1 0.1 -0.1
v 0 0 -0.1
v 0 0.1 -0.1
v 0.1 0 -0.1
v 0.1 0.1 -0.1
v 0.2 0 -0.1
v 0.2 0.1 -0.1
v -0.2 0 -0.2
v -0.2 0.1 -0.2
v -0.1 0 -0.2
v -0.1 0.1 -0.2
v 0.2 0 -0.2
v 0.2 0.1 -0.2
v 0.3 0 -0.2
v 0.3 0.1 -0.2
v -0.3 0 -0.3
v -0.3 0.1 -0.3
v -0.2 0 -0.3
v -0.2 0.1 -0.3
v 0.3 0 -0.3
v 0.3 0.1 -0.3
v 0.4 0 -0.3
v 0.4 0.1 -0.3
v -0.2 0 -0.4
v -0.2 0.1 -0.4
v 0.3 0 -0.4
v 0.3 0.1 -0.4
v -0.2 0 0.3
v -0.2 0.1 0.3
v 0.3 0 0.3
v 0.3 0.1 0.3
v -0.3 0 0.2
v -0.3 0.1 0.2
v -0.2 0 0.2
v -0.2 0.1 0.2
v 0.3 0 0.2
v 0.3 0.1 0.2
v 0.4 0 0.2
v 0.4 0.1 0.2
v -0.2 0 0.1
v -0.2 0.1 0.1
v -0.1 0 0.1
v -0.1 0.1 0.1
v 0.2 0 0.1
v 0.2 0.1 0.1
v 0.3 0 0.1
v 0.3 0.1 0.1
v -0.1 0 0
v -0.1 0.1 0
v 0 0 0
v 0 0.1 0
v 0.1 0 0
v 0.1 0.1 0
v 0.2 0 0
v 0.2 0.1 0
v 0 0 -0.1
v 0 0.1 -0.1
v 0.1 0 -0.1
v 0.1 0.1 -0.1
v -0.1 0 -0.2
v -0.1 0.1 -0.2
v 0 0 -0.2
v 0 0.1 -0.2
v 0.1 0 -0.2
v 0.1 0.1 -0.2
v 0.2 0 -0.2
v 0.2 0.1 -0.2
v -0.4 0 -0.3
v -0.4 0.1 -0.3
v -0.3 0 -0.3
v -0.3 0.1 -0.3
v -0.2 0 -0.3
v -0.2 0.1 -0.3
v -0.1 0 -0.3
v -0.1 0.1 -0.3
v 0.2 0 -0.3
v 0.2 0.1 -0.3
v 0.3 0 -0.3
v 0.3 0.1 -0.3
v 0.4 0 -0.3
v 0.4 0.1 -0.3
v 0.5 0 -0.3
v 0.5 0.1 -0.3
v -0.3 0 -0.4
v -0.3 0.1 -0.4
v -0.2 0 -0.4
v -0.2 0.1 -0.4
v 0.3 0 -0.4
v 0.3 0.1 -0.4
v 0.4 0 -0.4
v 0.4 0.1 -0.4
v -0.2 0 -0.5
v -0.2 0.1 -0.5
v 0.3 0 -0.5
v 0.3 0.1 -0.5
v -0.2 0 0.4
v 0.3 0 0.4
v -0.3 0 0.3
v -0.2 0 0.3
v 0.3 0 0.3
v 0.4 0 0.3
v -0.4 0 0.2
v -0.3 0 0.2
v -0.2 0 0.2
v -0.1 0 0.2
v 0.2 0 0.2
v 0.3 0 0.2
v 0.4 0 0.2
v 0.5 0 0.2
v -0.2 0 0.1
v -0.1 0 0.1
v 0 0 0.1
v 0.1 0 0.1
v 0.2 0 0.1
v 0.3 0 0.1
v -0.1 0 0
v 0 0 0
v 0.1 0 0
v 0.2 0 0
v -0.1 0 -0.1
v 0 0 -0.1
v 0.1 0 -0.1
v 0.2 0 -0.1
v -0.2 0 -0.2
v -0.1 0 -0.2
v 0 0 -0.2
v 0.1 0 -0.2
v 0.2 0 -0.2
v 0.3 0 -0.2
v -0.4 0 -0.3
v -0.3 0 -0.3
v -0.2 0 -0.3
v -0.1 0 -0.3
v 0.2 0 -0.3
v 0.3 0 -0.3
v 0.4 0 -0.3
v 0.5 0 -0.3
v -0.3 0 -0.4
v -0.2 0 -0.4
v 0.3 0 -0.4
v 0.4 0 -0.4
v -0.2 0 -0.5
v 0.3 0 -0.5
v -0.2 0.1 0.4
v 0.3 0.1 0.4
v -0.3 0.1 0.3
v -0.2 0.1 0.3
v 0.3 0.1 0.3
v 0.4 0.1 0.3
v -0.4 0.1 0.2
v -0.3 0.1 0.2
v -0.2 0.1 0.2
v -0.1 0.1 0.2
v 0.2 0.1 0.2
v 0.3 0.1 0.2
v 0.4 0.1 0.2
v 0.5 0.1 0.2
v -0.2 0.1 0.1
v -0.1 0.1 0.1
v 0 0.1 0.1
v 0.1 0.1 0.1
v 0.2 0.1 0.1
v 0.3 0.1 0.1
v -0.1 0.1 0
v 0 0.1 0
v 0.1 0.1 0
v 0.2 0.1 0
v -0.1 0.1 -0.1
v 0 0.1 -0.1
v 0.1 0.1 -0.1
v 0.2 0.1 -0.1
v -0.2 0.1 -0.2
v -0.1 0.1 -0.2
v 0 0.1 -0.2
v 0.1 0.1 -0.2
v 0.2 0.1 -0.2
v 0.3 0.1 -0.2
v -0.4 0.1 -0.3
v -0.3 0.1 -0.3
v -0.2 0.1 -0.3
v -0.1 0.1 -0.3
v 0.2 0.1 -0.3
v 0.3 0.1 -0.3
v 0.4 0.1 -0.3
v 0.5 0.1 -0.3
v -0.3 0.1 -0.4
v -0.2 0.1 -0.4
v 0.3 0.1 -0.4
v 0.4 0.1 -0.4
v -0.2 0.1 -0.5
v 0.3 0.1 -0.5

# faces
f 3/1/1 2/1/1 1/1/1
f 4/1/1 2/1/1 3/1/1
f 9/1/1 6/1/1 5/1/1
f 10/1/1 6/1/1 9/1/1
f 11/1/1 8/1/1 7/1/1
f 12/1/1 8/1/1 11/1/1
f 21/1/1 14/1/1 13/1/1
f 22/1/1 14/1/1 21/1/1
f 23/2/1 16/2/1 15/2/1
f 24/2/1 16/2/1 23/2/1
f 25/2/1 18/2/1 17/2/1
f 26/2/1 18/2/1 25/2/1
f 27/1/1 20/1/1 19/1/1
f 28/1/1 20/1/1 27/1/1
f 33/2/1 30/2/1 29/2/1
f 34/2/1 30/2/1 33/2/1
f 35/2/1 32/2/1 31/2/1
f 36/2/1 32/2/1 35/2/1
f 39/2/1 38/2/1 37/2/1
f 40/2/1 38/2/1 39/2/1
f 45/2/1 42/2/1 41/2/1
f 46/2/1 42/2/1 45/2/1
f 47/2/1 44/2/1 43/2/1
f 48/2/1 44/2/1 47/2/1
f 53/2/1 50/2/1 49/2/1
f 54/2/1 50/2/1 53/2/1
f 55/2/1 52/2/1 51/2/1
f 56/2/1 52/2/1 55/2/1
f 61/1/1 58/1/1 57/1/1
f 62/1/1 58/1/1 61/1/1
f 63/1/1 60/1/1 59/1/1
f 64/1/1 60/1/1 63/1/1
f 67/1/1 66/1/1 65/1/1
f 68/1/1 66/1/1 67/1/1
f 69/1/2 70/1/2 71/1/2
f 71/1/2 70/1/2 72/1/2
f 73/1/2 74/1/2 77/1/2
f 77/1/2 74/1/2 78/1/2
f 75/1/2 76/1/2 79/1/2
f 79/1/2 76/1/2 80/1/2
f 81/2/2 82/2/2 85/2/2
f 85/2/2 82/2/2 86/2/2
f 83/2/2 84/2/2 87/2/2
f 87/2/2 84/2/2 88/2/2
f 89/2/2 90/2/2 93/2/2
f 93/2/2 90/2/2 94/2/2
f 91/2/2 92/2/2 95/2/2
f 95/2/2 92/2/2 96/2/2
f 97/2/2 98/2/2 99/2/2
f 99/2/2 98/2/2 100/2/2
f 101/2/2 102/2/2 105/2/2
f 105/2/2 102/2/2 106/2/2
f 103/2/2 104/2/2 107/2/2
f 107/2/2 104/2/2 108/2/2
f 109/1/2 110/1/2 117/1/2
f 117/1/2 110/1/2 118/1/2
f 111/2/2 112/2/2 119/2/2
f 119/2/2 112/2/2 120/2/2
f 113/2/2 114/2/2 121/2/2
f 121/2/2 114/2/2 122/2/2
f 115/1/2 116/1/2 123/1/2
f 123/1/2 116/1/2 124/1/2
f 125/1/2 126/1/2 129/1/2
f 129/1/2 126/1/2 130/1/2
f 127/1/2 128/1/2 131/1/2
f 131/1/2 128/1/2 132/1/2
f 133/1/2 134/1/2 135/1/2
f 135/1/2 134/1/2 136/1/2
f 139/1/3 138/1/3 137/1/3
f 140/1/3 138/1/3 139/1/3
f 143/1/3 142/1/3 141/1/3
f 144/1/3 142/1/3 143/1/3
f 147/1/3 146/1/3 145/1/3
f 148/1/3 146/1/3 147/1/3
f 151/1/3 150/1/3 149/1/3
f 152/1/3 150/1/3 151/1/3
f 155/2/3 154/2/3 153/2/3
f 156/2/3 154/2/3 155/2/3
f 159/2/3 158/2/3 157/2/3
f 160/2/3 158/2/3 159/2/3
f 163/1/3 162/1/3 161/1/3
f 164/1/3 162/1/3 163/1/3
f 167/2/3 166/2/3 165/2/3
f 168/2/3 166/2/3 167/2/3
f 171/2/3 170/2/3 169/2/3
f 172/2/3 170/2/3 171/2/3
f 175/2/3 174/2/3 173/2/3
f 176/2/3 174/2/3 175/2/3
f 179/2/3 178/2/3 177/2/3
f 180/2/3 178/2/3 179/2/3
f 183/2/3 182/2/3 181/2/3
f 184/2/3 182/2/3 183/2/3
f 187/2/3 186/2/3 185/2/3
f 188/2/3 186/2/3 187/2/3
f 191/2/3 190/2/3 189/2/3
f 192/2/3 190/2/3 191/2/3
f 195/1/3 194/1/3 193/1/3
f 196/1/3 194/1/3 195/1/3
f 199/1/3 198/1/3 197/1/3
f 200/1/3 198/1/3 199/1/3
f 203/1/3 202/1/3 201/1/3
f 204/1/3 202/1/3 203/1/3
f 205/1/4 206/1/4 207/1/4
f 207/1/4 206/1/4 208/1/4
f 209/1/4 210/1/4 211/1/4
f 211/1/4 210/1/4 212/1/4
f 213/1/4 214/1/4 215/1/4
f 215/1/4 214/1/4 216/1/4
f 217/2/4 218/2/4 219/2/4
f 219/2/4 218/2/4 220/2/4
f 221/2/4 222/2/4 223/2/4
f 223/2/4 222/2/4 224/2/4
f 225/2/4 226/2/4 227/2/4
f 227/2/4 226/2/4 228/2/4
f 229/2/4 230/2/4 231/2/4
f 231/2/4 230/2/4 232/2/4
f 233/2/4 234/2/4 235/2/4
f 235/2/4 234/2/4 236/2/4
f 237/2/4 238/2/4 239/2/4
f 239/2/4 238/2/4 240/2/4
f 241/2/4 242/2/4 243/2/4
f 243/2/4 242/2/4 244/2/4
f 245/1/4 246/1/4 247/1/4
f 247/1/4 246/1/4 248/1/4
f 249/2/4 250/2/4 251/2/4
f 251/2/4 250/2/4 252/2/4
f 253/2/4 254/2/4 255/2/4
f 255/2/4 254/2/4 256/2/4
f 257/1/4 258/1/4 259/1/4
f 259/1/4 258/1/4 260/1/4
f 261/1/4 262/1/4 263/1/4
f 263/1/4 262/1/4 264/1/4
f 265/1/4 266/1/4 267/1/4
f 267/1/4 266/1/4 268/1/4
f 269/1/4 270/1/4 271/1/4
f 271/1/4 270/1/4 272/1/4
f 276/1/5 274/1/5 273/1/5
f 277/1/5 274/1/5 276/1/5
f 280/1/5 276/1/5 275/1/5
f 281/1/5 276/1/5 280/1/5
f 284/1/5 278/1/5 277/1/5
f 285/1/5 278/1/5 284/1/5
f 287/2/5 282/2/5 281/2/5
f 288/2/5 282/2/5 287/2/5
f 291/2/5 284/2/5 283/2/5
f 292/2/5 284/2/5 291/2/5
f 293/2/5 289/2/5 288/2/5
f 294/2/5 289/2/5 293/2/5
f 295/2/5 291/2/5 290/2/5
f 296/2/5 291/2/5 295/2/5
f 298/2/5 295/2/5 294/2/5
f 299/2/5 295/2/5 298/2/5
f 302/2/5 298/2/5 297/2/5
f 303/2/5 298/2/5 302/2/5
f 304/2/5 300/2/5 299/2/5
f 305/2/5 300/2/5 304/2/5
f 307/1/5 280/1/5 279/1/5
f 308/1/5 280/1/5 307/1/5
f 309/2/5 302/2/5 301/2/5
f 310/2/5 302/2/5 309/2/5
f 311/2/5 306/2/5 305/2/5
f 312/2/5 306/2/5 311/2/5
f 313/1/5 286/1/5 285/1/5
f 314/1/5 286/1/5 313/1/5
f 315/1/5 309/1/5 308/1/5
f 316/1/5 309/1/5 315/1/5
f 317/1/5 313/1/5 312/1/5
f 318/1/5 313/1/5 317/1/5
f 319/1/5 317/1/5 316/1/5
f 320/1/5 317/1/5 319/1/5
f 321/1/6 322/1/6 324/1/6
f 324/1/6 322/1/6 325/1/6
f 323/1/6 324/1/6 328/1/6
f 328/1/6 324/1/6 329/1/6
f 325/1/6 326/1/6 332/1/6
f 332/1/6 326/1/6 333/1/6
f 329/2/6 330/2/6 335/2/6
f 335/2/6 330/2/6 336/2/6
f 331/2/6 332/2/6 339/2/6
f 339/2/6 332/2/6 340/2/6
f 336/2/6 337/2/6 341/2/6
f 341/2/6 337/2/6 342/2/6
f 338/2/6 339/2/6 343/2/6
f 343/2/6 339/2/6 344/2/6
f 342/2/6 343/2/6 346/2/6
f 346/2/6 343/2/6 347/2/6
f 345/2/6 346/2/6 350/2/6
f 350/2/6 346/2/6 351/2/6
f 347/2/6 348/2/6 352/2/6
f 352/2/6 348/2/6 353/2/6
f 327/1/6 328/1/6 355/1/6
f 355/1/6 328/1/6 356/1/6
f 349/2/6 350/2/6 357/2/6
f 357/2/6 350/2/6 358/2/6
f 353/2/6 354/2/6 359/2/6
f 359/2/6 354/2/6 360/2/6
f 333/1/6 334/1/6 361/1/6
f 361/1/6 334/1/6 362/1/6
f 356/1/6 357/1/6 363/1/6
f 363/1/6 357/1/6 364/1/6
f 360/1/6 361/1/6 365/1/6
f 365/1/6 361/1/6 366/1/6
f 364/1/6 365/1/6 367/1/6
f 367/1/6 365/1/6 368/1/6
